<?xml version="1.0" encoding="UTF-8"?>
<svg width="80px" height="73px" viewBox="0 0 80 73" version="1.1" xmlns="http://www.w3.org/2000/svg" xmlns:xlink="http://www.w3.org/1999/xlink">
    <!-- Generator: Sketch 52.6 (67491) - http://www.bohemiancoding.com/sketch -->
    <title>Group 2</title>
    <desc>Created with Sketch.</desc>
    <defs>
        <filter x="-133.3%" y="-300.0%" width="366.7%" height="700.0%" filterUnits="objectBoundingBox" id="filter-1">
            <feOffset dx="0" dy="2" in="SourceAlpha" result="shadowOffsetOuter1"></feOffset>
            <feGaussianBlur stdDeviation="2" in="shadowOffsetOuter1" result="shadowBlurOuter1"></feGaussianBlur>
            <feColorMatrix values="0 0 0 0 0   0 0 0 0 0   0 0 0 0 0  0 0 0 0.5 0" type="matrix" in="shadowBlurOuter1" result="shadowMatrixOuter1"></feColorMatrix>
            <feMerge>
                <feMergeNode in="shadowMatrixOuter1"></feMergeNode>
                <feMergeNode in="SourceGraphic"></feMergeNode>
            </feMerge>
        </filter>
    </defs>
    <g id="Visual" stroke="none" stroke-width="1" fill="none" fill-rule="evenodd">
        <g id="How-it-works-Copy" transform="translate(-217.000000, -1847.000000)">
            <g id="Group-2" transform="translate(217.000000, 1847.000000)">
                <g id="idea" transform="translate(52.000000, 0.000000)">
                    <path d="M17.6308375,24.6359683 C18.0331825,23.2942185 18.8378727,22.0866248 19.9108138,21.1473433 C21.9225391,19.4701088 23.1966527,16.9207653 23.1966527,14.1030466 C23.1966527,8.87014045 18.8379355,4.57645292 13.4732928,4.84482805 C8.71216768,5.04609367 4.82281114,9.07140607 4.68871707,13.8346714 C4.62163861,16.7866091 5.89575225,19.4030622 7.97455602,21.1473433 C9.11451274,22.0865619 9.91920286,23.2941556 10.3215479,24.6359683 L17.6308375,24.6359683 Z" id="Path" fill="#FFAD11"></path>
                    <path d="M13.1335397,24.8717192 L13.7366533,24.8717192 L11.0561277,14.8203353 C11.1231613,14.8203353 11.190132,14.8203353 11.2571656,14.8203353 C11.5922077,14.8203353 11.9273127,14.6854382 12.1953212,14.4155807 C12.3293255,14.2806836 12.4633926,14.2132035 12.6644305,14.2132035 C12.8654683,14.2132035 12.9994726,14.2806836 13.1335397,14.4155807 C13.602649,14.9552324 14.4068003,14.9552324 14.8758468,14.4155807 C15.0098511,14.2806836 15.1439182,14.2132035 15.344956,14.2132035 C15.4789603,14.2132035 15.6799981,14.2806836 15.8140652,14.4155807 C16.0821366,14.6854382 16.3501452,14.8203353 16.7522209,14.8203353 C16.8192545,14.8203353 16.8862252,14.8203353 16.9532588,14.8203353 L14.3397668,24.8717192 L14.9428803,24.8717192 L17.6903766,14.3481006 C17.6903766,14.2132035 17.6903766,14.0782431 17.5563723,14.0108262 C17.422368,13.943346 17.2883009,14.0108262 17.2213302,14.0783064 C17.0873259,14.2132035 16.9532588,14.2806836 16.8192545,14.2806836 C16.6182166,14.2806836 16.4842123,14.2132035 16.2831745,14.0783064 C16.0151031,13.8084489 15.7470945,13.6735518 15.4119896,13.6735518 C15.0768846,13.6735518 14.808876,13.8084489 14.5408046,14.0783064 C14.2727332,14.3481638 13.8706575,14.3481638 13.602649,14.0783064 C13.4016111,13.8084489 13.066569,13.6735518 12.731464,13.6735518 C12.3964219,13.6735518 12.061317,13.8084489 11.8602791,14.0783064 C11.7262748,14.2132035 11.525237,14.2806836 11.3241991,14.2806836 C11.1901949,14.2806836 10.989157,14.2132035 10.9221235,14.0783064 C10.8550899,14.0108262 10.7210856,13.9434093 10.5870813,14.0108262 C10.453077,14.0783064 10.3860435,14.2132035 10.453077,14.3481006 L13.1335397,24.8717192 Z" id="Path" fill="#FFFFFF"></path>
                    <g id="Group" transform="translate(10.309623, 24.635968)">
                        <path d="M1.57285742,6.2551282 C1.90934406,7.0590001 2.71681107,7.66190402 3.65883489,7.66190402 C4.60085871,7.66190402 5.40832572,7.0590001 5.74481236,6.2551282 L1.57285742,6.2551282 Z" id="Path" fill="#1177FF"></path>
                        <path d="M6.14854586,6.32213846 L1.23643386,6.32213846 C0.563523656,6.32213846 0.0252333441,5.7862448 0.0252333441,5.11633061 L0.0252333441,0.0251209968 L7.35974638,0.0251209968 L7.35974638,5.11633061 C7.35974638,5.78618199 6.82139298,6.32213846 6.14854586,6.32213846 Z" id="Path" fill="#041E40"></path>
                    </g>
                    <g id="Group" filter="url(#filter-1)" transform="translate(9.606695, 25.696847)" fill="#1177FF">
                        <path d="M8.0083682,1.50156018 L0.778242678,1.50156018 C0.376569038,1.50156018 0.0418619247,1.16696692 0.0418619247,0.765429915 C0.0418619247,0.363892911 0.376569038,0.0292996533 0.778242678,0.0292996533 L8.0083682,0.0292996533 C8.41004184,0.0292996533 8.74474895,0.363892911 8.74474895,0.765429915 C8.74474895,1.16696692 8.41004184,1.50156018 8.0083682,1.50156018 Z" id="Path"></path>
                        <path d="M8.0083682,3.8439012 L0.778242678,3.8439012 C0.376569038,3.8439012 0.0418619247,3.50930794 0.0418619247,3.10777094 C0.0418619247,2.70623393 0.376569038,2.37164068 0.778242678,2.37164068 L8.0083682,2.37164068 C8.41004184,2.37164068 8.74474895,2.70623393 8.74474895,3.10777094 C8.74474895,3.5092452 8.41004184,3.8439012 8.0083682,3.8439012 Z" id="Path"></path>
                    </g>
                    <g id="Group" fill="#FFAD11">
                        <path d="M14,0 C13.6651928,0 13.3303229,0.269824878 13.3303229,0.674530578 L13.3303229,2.96788395 C13.3303229,3.30511763 13.5982063,3.64241453 14,3.64241453 C14.4017937,3.64241453 14.6696771,3.37258965 14.6696771,2.96788395 L14.6696771,0.674530578 C14.6696771,0.269824878 14.3348072,0 14,0 Z" id="Path"></path>
                        <path d="M5.0266278,4.11452902 C4.75874439,3.84470415 4.35695067,3.84470415 4.08913004,4.11452902 C3.82130942,4.3843539 3.82124664,4.7890596 4.08913004,5.05882125 L5.69630493,6.67764404 C5.96418834,6.94746892 6.36598206,6.94746892 6.63380269,6.67764404 C6.90162332,6.40781917 6.9016861,6.00311347 6.63380269,5.73335182 L5.0266278,4.11452902 Z" id="Path"></path>
                        <path d="M2.95067265,13.4227601 L0.673820628,13.4227601 C0.339013453,13.4227601 0.00414349776,13.692585 0.00414349776,14.0972907 C0.00414349776,14.4345244 0.272026906,14.7718213 0.673820628,14.7718213 L2.95067265,14.7718213 C3.28547982,14.7718213 3.62034978,14.5019964 3.62034978,14.0972907 C3.62034978,13.7599938 3.28547982,13.4227601 2.95067265,13.4227601 Z" id="Path"></path>
                        <path d="M5.69624215,21.5168741 L4.08906726,23.1356969 C3.82118386,23.4055218 3.82118386,23.8102275 4.08906726,24.0799891 C4.35695067,24.3497508 4.75874439,24.349814 5.02656502,24.0799891 L6.63373991,22.4611663 C6.90162332,22.1913415 6.90162332,21.7866358 6.63373991,21.5168741 C6.3658565,21.2471125 5.96412556,21.2470492 5.69624215,21.5168741 Z" id="Path"></path>
                        <path d="M22.3037578,21.5168741 C22.0358744,21.2470492 21.6340807,21.2470492 21.3661973,21.5168741 C21.0983139,21.786699 21.0983139,22.1914047 21.3661973,22.4611663 L22.9733722,24.0799891 C23.2412556,24.349814 23.6430493,24.349814 23.91087,24.0799891 C24.1786906,23.8101643 24.1787534,23.4054586 23.91087,23.1356969 L22.3037578,21.5168741 Z" id="Path"></path>
                        <path d="M27.3261794,13.4227601 L25.0493274,13.4227601 C24.7145202,13.4227601 24.3796502,13.692585 24.3796502,14.0972907 C24.3796502,14.4345244 24.6475336,14.7718213 25.0493274,14.7718213 L27.3261794,14.7718213 C27.6609865,14.7718213 27.9958565,14.5019964 27.9958565,14.0972907 C27.9957937,13.7599938 27.7279731,13.4227601 27.3261794,13.4227601 Z" id="Path"></path>
                        <path d="M22.9733722,4.11452902 L21.3661973,5.73335182 C21.0983139,6.0031767 21.0983139,6.4078824 21.3661973,6.67764404 C21.6340807,6.94746892 22.0358744,6.94746892 22.3036951,6.67764404 L23.91087,5.05882125 C24.1787534,4.78899637 24.1787534,4.38429067 23.91087,4.11452902 C23.6429865,3.84476738 23.2412556,3.84470415 22.9733722,4.11452902 Z" id="Path"></path>
                    </g>
                </g>
                <g id="engineer-2" transform="translate(0.000000, 12.000000)">
                    <g id="engineer">
                        <path d="M14.4827344,21.829354 L14.4827344,27.0268361 C14.4827344,36.1744186 21.4137891,45.737795 30,45.737795 C38.5862109,45.737795 45.5172656,36.1744186 45.5172656,27.0268361 L45.5172656,21.829354 L14.4827344,21.829354 Z" id="Path" fill="#FFAF51"></path>
                        <path d="M34.1378906,3.11851279 L34.1378906,2.07896927 C34.1378906,0.935565611 33.2069531,0 32.0689453,0 L27.9310547,0 C26.7931641,0 25.8621094,0.935565611 25.8621094,2.07896927 L25.8621094,3.11851279 C18.1034766,4.98964401 12.4137891,11.4345076 12.4137891,19.7503847 L12.4137891,21.829354 L47.5862109,21.829354 L47.5862109,19.7503847 C47.5862109,11.4343899 41.8965234,4.98952625 34.1378906,3.11851279" id="Path" fill="#FFAD11"></path>
                        <g id="Group" transform="translate(9.257812, 3.061637)" fill="#B27500">
                            <path d="M24.8800781,5.25435785 C24.2593359,5.25435785 23.8455469,4.838564 23.8455469,4.21481434 L23.8455469,1.09630155 C23.8455469,0.472551894 24.2593359,0.0567580396 24.8800781,0.0567580396 C25.5008203,0.0567580396 25.9146094,0.472551894 25.9146094,1.09630155 L25.9146094,4.21481434 C25.9146094,4.838564 25.5008203,5.25435785 24.8800781,5.25435785" id="Path"></path>
                            <path d="M16.6042969,5.25435785 C15.9835547,5.25435785 15.5697656,4.838564 15.5697656,4.21481434 L15.5697656,1.09630155 C15.5697656,0.472551894 15.9835547,0.0567580396 16.6042969,0.0567580396 C17.2250391,0.0567580396 17.6388281,0.472551894 17.6388281,1.09630155 L17.6388281,4.21481434 C17.6387109,4.838564 17.2249219,5.25435785 16.6042969,5.25435785" id="Path"></path>
                            <path d="M40.3973438,19.8072605 L1.08703125,19.8072605 C0.466289062,19.8072605 0.0525,19.3914667 0.0525,18.767717 C0.0525,18.1439673 0.466289062,17.7281735 1.08703125,17.7281735 L40.3973438,17.7281735 C41.0180859,17.7281735 41.431875,18.1439673 41.431875,18.767717 C41.431875,19.3914667 41.0180859,19.8072605 40.3973438,19.8072605" id="Path"></path>
                        </g>
                        <g id="Group" transform="translate(24.726562, 45.689044)" fill="#041E40">
                            <polygon id="Path" points="9.41132813 9.40417128 1.13554688 9.40417128 5.2734375 0.0487506813"></polygon>
                            <polygon id="Path" points="0.101015625 14.6016533 1.13554688 9.40417128 9.41144531 9.40417128 10.4458594 14.6016533"></polygon>
                        </g>
                        <g id="Group" transform="translate(17.578125, 39.448015)" fill="#1177FF">
                            <path d="M1.35292969,0.156732263 L1.04261719,0.0527543605 L0.0080859375,4.21069291 L8.28398437,15.6450828 L12.421875,6.28977993 C8.07703125,6.28977993 4.14597656,3.79501681 1.35292969,0.156732263" id="Path"></path>
                            <path d="M23.4908203,0.156732263 C20.6977734,3.79501681 16.7667187,6.28977993 12.421875,6.28977993 L16.5597656,15.6452005 L24.8356641,4.21081066 L23.8011328,0.0528721157 L23.4908203,0.156732263 Z" id="Path"></path>
                        </g>
                        <g id="Group" transform="translate(0.000000, 45.689044)" fill="#04A2E8">
                            <path d="M57.5172656,5.97384255 C51.8275781,2.95930766 46.3448438,0.672382585 41.379375,0.0487506813 L40.8621094,0.0487506813 L34.1380078,9.40417128 L35.1724219,14.6016533 L34.7586328,14.6016533 L60,14.6016533 L60,10.1317811 C60,8.36462777 59.0689453,6.80543026 57.5172656,5.97384255" id="Path"></path>
                            <path d="M19.1378906,0.0487506813 L18.620625,0.0487506813 C13.6551563,0.672500341 8.17230469,2.95930766 2.48273438,5.97384255 C0.931054688,6.80543026 0,8.36462777 0,10.1317811 L0,14.6016533 L24.8275781,14.6016533 L25.8621094,9.40417128 L19.1378906,0.0487506813 Z" id="Path"></path>
                        </g>
                        <g id="Group" transform="translate(14.882813, 4.827966)" fill="#B27500">
                            <path d="M0.0137109375,6.08676985 L7.87582031,7.64596736 L6.32414063,0.0577000818 C3.73792969,1.51291969 1.56550781,3.59188897 0.0137109375,6.08676985" id="Path"></path>
                            <path d="M30.2206641,6.08676985 L22.3585547,7.64596736 L23.9102344,0.0577000818 C26.4964453,1.51291969 28.6688672,3.59188897 30.2206641,6.08676985" id="Path"></path>
                        </g>
                    </g>
                </g>
            </g>
        </g>
    </g>
</svg>