<?xml version="1.0" encoding="UTF-8"?>
<svg width="73px" height="73px" viewBox="0 0 73 73" version="1.1" xmlns="http://www.w3.org/2000/svg" xmlns:xlink="http://www.w3.org/1999/xlink">
    <!-- Generator: Sketch 52.6 (67491) - http://www.bohemiancoding.com/sketch -->
    <title>roof</title>
    <desc>Created with Sketch.</desc>
    <g id="Visual" stroke="none" stroke-width="1" fill="none" fill-rule="evenodd">
        <g id="How-it-works-Copy" transform="translate(-561.000000, -1847.000000)">
            <g id="roof" transform="translate(561.000000, 1847.000000)">
                <path d="M36.0705882,39.5058824 C26.599457,39.5058824 18.8941176,47.0185882 18.8941176,56.2529412 C18.8941176,65.4872942 26.599457,73 36.0705882,73 C45.5417195,73 53.2470588,65.4872942 53.2470588,56.2529412 C53.2470588,47.0185882 45.5417195,39.5058824 36.0705882,39.5058824 Z" id="Path" fill="#04A2E8"></path>
                <path d="M41.1571539,68.052562 C31.6092275,68.052562 23.8414107,60.2847452 23.8414107,50.7368188 C23.8414107,47.2254392 24.8929841,43.9555042 26.6965714,41.2235294 C21.9998531,44.3237577 18.8941176,49.6478549 18.8941176,55.6842568 C18.8941176,65.2321832 26.6619344,73 36.2098608,73 C42.2464077,73 47.5703599,69.8942646 50.6705882,65.1975462 C47.9384686,67.0009887 44.6685335,68.052562 41.1571539,68.052562 Z" id="Path" fill="#1177FF"></path>
                <g id="Group" transform="translate(18.894118, 38.647059)" fill="#AACC22">
                    <path d="M29.0627314,5.22863016 C29.0535706,4.89472407 28.906998,4.57934457 28.6575098,4.35631297 C25.5169353,1.55053275 21.4622863,0.00527295145 17.2403098,0.00527295145 C13.6524314,0.00527295145 10.2174235,1.09990917 7.30687059,3.17089648 C6.78871373,3.53957555 6.64199804,4.24258824 6.96978235,4.78627228 L8.8633451,7.92866632 C9.01335294,8.17763514 9.2479549,8.36489617 9.52449608,8.45681654 L12.6098196,9.4806242 L13.6382608,12.5526172 C13.7242863,12.8092817 13.8934745,13.0300331 14.1196314,13.1799559 L17.5144176,15.4332163 L19.8124863,20.0095681 C20.0423647,20.4670323 20.5507882,20.7365229 21.0600706,20.6718223 C21.5538941,20.6089745 21.9694216,20.241578 22.0902294,19.7605993 L23.3117627,14.8956603 C23.3360961,14.7991796 23.3482627,14.7001336 23.3482627,14.6006601 L23.3482627,11.4555583 L28.7054608,6.12189663 C28.9424961,5.88532638 29.071749,5.56239373 29.0627314,5.22863016 Z" id="Path"></path>
                    <path d="M33.9601725,13.4424634 C33.819898,12.7923227 33.1815059,12.3749045 32.5260804,12.5051606 L27.9947843,13.4075479 C27.5111235,13.5038862 27.1332412,13.8802609 27.0366235,14.3615246 L25.8150902,20.4428052 C25.7515373,20.7591823 25.816951,21.0875304 25.9964451,21.3560234 L28.4396549,25.0047633 C28.4521078,25.0234324 28.4652765,25.0418165 28.4787314,25.059773 L29.5293588,26.4543974 C30.028049,27.1166516 31.0688,27.0852989 31.5265529,26.3942573 C33.3687294,23.6125616 34.3424922,20.375397 34.3424922,17.0326308 C34.342349,15.8266925 34.2138118,14.6190441 33.9601725,13.4424634 Z" id="Path"></path>
                    <path d="M14.4392569,18.6051104 C14.2686373,18.4353784 14.051498,18.3196585 13.8150353,18.2724869 L8.16469216,17.1474956 L4.77992549,12.6542284 C4.44856275,12.2141507 3.86198627,12.0504042 3.34898235,12.2546242 L1.14953529,13.1306467 C0.757196078,13.2868401 0.473784314,13.6338573 0.400211765,14.0479977 C0.226156863,15.0277691 0.137841176,16.0321951 0.137841176,17.0326308 C0.137841176,20.2973003 1.06880588,23.4697644 2.8301098,26.2068537 C4.54417843,28.8704068 6.95947647,31.0035294 9.81549412,32.3759219 C10.2347431,32.5771491 10.7461725,32.5197167 11.109598,32.2302744 L16.781698,27.7123526 C16.9654863,27.5658501 17.1030412,27.3696108 17.1774725,27.1472918 L18.3990059,23.4985519 C18.5452922,23.0614669 18.4310686,22.5794907 18.1038569,22.2537078 L14.4392569,18.6051104 Z" id="Path"></path>
                </g>
                <path d="M23.8701393,51.5210716 L23.6011926,51.1640297 C23.2651907,50.7178357 22.670402,50.5518133 22.1502158,50.7588716 L19.9199758,51.6470695 C19.5221437,51.8054337 19.2347641,52.1572738 19.1601615,52.5771702 C18.9836698,53.5705588 18.8941176,54.5889447 18.8941176,55.6032848 C18.8941176,58.913328 19.8381162,62.1298842 21.6240789,64.9050147 C23.362145,67.6055868 25.811258,69.7683564 28.7072608,71.159823 C28.8785275,71.2420394 29.0624214,71.2823529 29.2455896,71.2823529 C29.5216482,71.2823529 29.7955297,71.1904555 30.0196278,71.0121512 L35.2117647,66.8769092 C28.8406456,64.5403146 24.2157206,58.5808498 23.8701393,51.5210716 Z" id="Path" fill="#58AB23"></path>
                <path d="M69.4072958,12.3629631 C69.0722501,11.7754617 68.3115545,11.5640411 67.708648,11.8902248 L58.3218077,16.9694526 L58.3218077,8.08721926 C58.3218077,7.41532073 57.7625201,6.87058824 57.0726686,6.87058824 C56.3828171,6.87058824 55.8235294,7.41532073 55.8235294,8.08721926 L55.8235294,19.0465928 C55.8235294,19.0484461 55.8235294,19.050442 55.8235294,19.0521527 L55.8235294,20.2539572 C55.8235294,20.9258557 56.3828171,21.4705882 57.0726686,21.4705882 C57.7625201,21.4705882 58.3218077,20.9258557 58.3218077,20.2539572 L58.3218077,19.7531341 L68.921926,14.0174045 C69.5249789,13.6910782 69.7423414,12.9504644 69.4072958,12.3629631 Z" id="Path" fill="#B27500"></path>
                <path d="M57.2245738,0.530371476 C56.7631106,-0.176790492 55.7429101,-0.176790492 55.2814469,0.530371476 C54.6547701,1.49048885 51.5294118,6.39887839 51.5294118,8.74109609 C51.5294118,11.4982661 53.6484067,13.7411765 56.2529412,13.7411765 C58.857614,13.7411765 60.9764706,11.4981196 60.9764706,8.74109609 C60.976609,6.39887839 57.8512506,1.49063532 57.2245738,0.530371476 Z" id="Path" fill="#AACC22"></path>
                <path d="M57.4261627,12.4882816 C54.8249151,12.4882816 52.7088449,10.2400004 52.7088449,7.47655537 C52.7088449,5.50941942 54.8996747,1.73752175 55.9780925,0 C55.7046188,0.0653314052 55.4506296,0.231669567 55.2765129,0.499601734 C54.6506602,1.46195535 51.5294118,6.38177719 51.5294118,8.72945023 C51.5294118,11.4930421 53.6456202,13.7411765 56.2467296,13.7411765 C57.8477738,13.7411765 59.2643372,12.8884915 60.1176471,11.5889104 C59.3537447,12.155018 58.4260899,12.4882816 57.4261627,12.4882816 Z" id="Path" fill="#58AB23"></path>
                <path d="M72.8578875,11.2370984 C72.6678697,10.8947102 72.3115313,10.6621342 71.9045801,10.6147372 C70.747797,10.4803998 64.8728953,9.8612077 62.7999599,10.8817587 C61.0039328,11.7660433 59.9311145,13.6424958 60.1445372,15.5441625 C60.2105095,16.1319403 60.3971629,16.7055266 60.6878215,17.2292359 C61.6042664,18.8808282 63.5306291,19.8820898 65.5026312,19.7394854 C66.1733255,19.6909862 66.8307083,19.5121452 67.4267997,19.2186696 C69.4998814,18.1979808 72.313433,13.3010721 72.8564247,12.3295715 C73.047174,11.9880101 73.0480517,11.5794865 72.8578875,11.2370984 Z" id="Path" fill="#AACC22"></path>
                <g id="Group" transform="translate(55.823529, 6.870588)" fill="#58AB23">
                    <path d="M12.4814722,11.5557702 C10.5315269,11.7109576 8.62685523,10.622249 7.72051616,8.82665869 C7.43325325,8.25743844 7.24868755,7.63369289 7.18330848,6.99481806 C7.02781622,5.47170451 7.56415604,3.96521819 8.5665387,2.89208824 C8.24875591,2.97552394 7.96554303,3.07768399 7.73252161,3.20366142 C5.95658303,4.16504446 4.89576421,6.20509986 5.10679975,8.27256772 C5.17203418,8.91144254 5.35659988,9.5351881 5.64400743,10.1045581 C6.55020186,11.9001484 8.4550182,12.9887073 10.4049635,12.8336696 C11.068156,12.7809419 11.718186,12.5865082 12.3076102,12.2674453 C12.6511396,12.0814001 13.0153531,11.7752196 13.3859309,11.3926436 C13.0902786,11.4757798 12.7873942,11.5315034 12.4814722,11.5557702 Z" id="Path"></path>
                    <path d="M0.143920743,6.25168605 C0.538654118,6.35729138 0.952335851,6.41361423 1.37831232,6.41361423 C1.80428879,6.41361423 2.21797053,6.35729138 2.6127039,6.25168605 L2.6127039,1.29991929 C2.6127039,0.593936389 2.06001932,0.0215704514 1.37831232,0.0215704514 C0.696605325,0.0215704514 0.143920743,0.593936389 0.143920743,1.29991929 L0.143920743,6.25168605 Z" id="Path"></path>
                    <path d="M13.5674591,5.79256498 C13.236369,5.1752606 12.4846544,4.95311491 11.8888659,5.29584542 L5.26344916,9.10767373 C5.35674452,9.45220178 5.48374192,9.78699316 5.64415207,10.1045581 C5.87254489,10.5570882 6.16458105,10.9642305 6.50478365,11.3183454 L13.0879643,7.53093365 C13.6837528,7.18805335 13.8985491,6.40986936 13.5674591,5.79256498 Z" id="Path"></path>
                </g>
                <path d="M63.1950149,21.4705882 L51.028372,21.4705882 C50.3564866,21.4705882 49.8117647,22.0120035 49.8117647,22.6798103 L49.8117647,30.7119126 C49.8117647,31.0874034 49.9871135,31.4414983 50.2866322,31.6704768 L62.4532751,40.9727299 C62.6701089,41.1385126 62.9317065,41.2235294 63.1953,41.2235294 C63.3782045,41.2235294 63.5621069,41.1825797 63.7326087,41.0991215 C64.1484563,40.8955063 64.4117647,40.4749566 64.4117647,40.0143074 L64.4117647,22.6798103 C64.4117647,22.0118618 63.8669003,21.4705882 63.1950149,21.4705882 Z" id="Path" fill="#CC6522"></path>
                <path d="M49.8117647,24.9058824 L49.8117647,29.9219517 C49.8117647,30.2949826 49.9871135,30.6467578 50.2866322,30.8742363 L62.4532751,40.1155494 C62.6701089,40.2802461 62.9317065,40.3647059 63.1953,40.3647059 C63.3782045,40.3647059 63.5621069,40.3240244 63.7326087,40.241113 C64.1484563,40.0388317 64.4117647,39.6210371 64.4117647,39.1634056 L64.4117647,36.0105201 L49.8117647,24.9058824 Z" id="Path" fill="#A3682D"></path>
                <path d="M71.2483823,45.4158528 C71.1116059,44.3833421 70.5743513,43.4652269 69.7361315,42.8304303 L38.0558181,18.8429312 C36.6337997,17.766152 34.6483993,17.7660115 33.2266665,18.8429312 L1.5463531,42.8305708 C0.707847695,43.4653675 0.170878711,44.3834827 0.033959473,45.4159934 C-0.102959765,46.4485041 0.177017947,47.471599 0.821923265,48.29668 C2.13729026,49.9800083 4.66308613,50.3060495 6.37521909,49.0097546 L35.6410995,26.8504755 L64.9074083,49.0097546 C66.2254879,50.0078343 68.0989543,50.0838637 69.4908476,49.1844396 C69.8619144,48.9446869 70.1902922,48.6428177 70.4607041,48.2965395 C71.1054666,47.4713179 71.3853016,46.4483636 71.2483823,45.4158528 Z" id="Path" fill="#CC6522"></path>
            </g>
        </g>
    </g>
</svg>