<?xml version="1.0" encoding="UTF-8"?>
<svg width="73px" height="73px" viewBox="0 0 73 73" version="1.1" xmlns="http://www.w3.org/2000/svg" xmlns:xlink="http://www.w3.org/1999/xlink">
    <!-- Generator: Sketch 52.6 (67491) - http://www.bohemiancoding.com/sketch -->
    <title>banking</title>
    <desc>Created with Sketch.</desc>
    <g id="Visual" stroke="none" stroke-width="1" fill="none" fill-rule="evenodd">
        <g id="How-it-works-Copy" transform="translate(-905.000000, -1847.000000)">
            <g id="banking" transform="translate(905.000000, 1847.000000)">
                <rect id="Rectangle" fill="#B27500" x="55.7311828" y="25.9032258" width="2.35483871" height="32.1827957"></rect>
                <rect id="Rectangle" fill="#FFAD11" transform="translate(21.193548, 61.618280) rotate(-180.000000) translate(-21.193548, -61.618280) " x="6.27956989" y="58.0860215" width="29.827957" height="7.06451613"></rect>
                <rect id="Rectangle" fill="#FFAD11" transform="translate(17.268817, 47.489247) rotate(-180.000000) translate(-17.268817, -47.489247) " x="2.35483871" y="43.9569892" width="29.827957" height="7.06451613"></rect>
                <rect id="Rectangle" fill="#FFAD11" transform="translate(57.301075, 69.467742) rotate(-180.000000) translate(-57.301075, -69.467742) " x="42.3870968" y="65.9354839" width="29.827957" height="7.06451613"></rect>
                <circle id="Oval" fill="#FFAD11" cx="17.2688172" cy="18.8387097" r="17.2688172"></circle>
                <rect id="Rectangle" fill="#CC6522" transform="translate(17.268817, 69.467742) rotate(-180.000000) translate(-17.268817, -69.467742) " x="2.35483871" y="65.9354839" width="29.827957" height="7.06451613"></rect>
                <rect id="Rectangle" fill="#FFAF51" x="25.9032258" y="65.1505376" width="2.35483871" height="3.92473118"></rect>
                <rect id="Rectangle" fill="#FFAF51" x="21.1935484" y="65.1505376" width="2.35483871" height="3.92473118"></rect>
                <rect id="Rectangle" fill="#FFAF51" x="15.6989247" y="65.1505376" width="2.35483871" height="3.92473118"></rect>
                <rect id="Rectangle" fill="#FFAF51" x="10.9892473" y="65.1505376" width="2.35483871" height="3.92473118"></rect>
                <rect id="Rectangle" fill="#FFAF51" x="5.49462366" y="65.1505376" width="2.35483871" height="3.92473118"></rect>
                <rect id="Rectangle" fill="#B27500" x="29.827957" y="58.0860215" width="2.35483871" height="3.92473118"></rect>
                <rect id="Rectangle" fill="#B27500" x="24.3333333" y="58.0860215" width="2.35483871" height="3.92473118"></rect>
                <rect id="Rectangle" fill="#B27500" x="19.6236559" y="58.0860215" width="2.35483871" height="3.92473118"></rect>
                <rect id="Rectangle" fill="#B27500" x="14.9139785" y="58.0860215" width="2.35483871" height="3.92473118"></rect>
                <rect id="Rectangle" fill="#B27500" x="10.2043011" y="58.0860215" width="2.35483871" height="3.92473118"></rect>
                <rect id="Rectangle" fill="#CC6522" transform="translate(14.913978, 54.553763) rotate(-180.000000) translate(-14.913978, -54.553763) " x="0" y="51.0215054" width="29.827957" height="7.06451613"></rect>
                <rect id="Rectangle" fill="#FFAF51" x="23.5483871" y="51.0215054" width="2.35483871" height="3.92473118"></rect>
                <rect id="Rectangle" fill="#FFAF51" x="18.8387097" y="51.0215054" width="2.35483871" height="3.92473118"></rect>
                <rect id="Rectangle" fill="#FFAF51" x="14.1290323" y="51.0215054" width="2.35483871" height="3.92473118"></rect>
                <rect id="Rectangle" fill="#FFAF51" x="8.6344086" y="51.0215054" width="2.35483871" height="3.92473118"></rect>
                <rect id="Rectangle" fill="#FFAF51" x="3.92473118" y="51.0215054" width="2.35483871" height="3.92473118"></rect>
                <rect id="Rectangle" fill="#B27500" x="25.9032258" y="43.172043" width="2.35483871" height="3.92473118"></rect>
                <rect id="Rectangle" fill="#B27500" x="21.1935484" y="43.172043" width="2.35483871" height="3.92473118"></rect>
                <rect id="Rectangle" fill="#B27500" x="15.6989247" y="43.172043" width="2.35483871" height="3.92473118"></rect>
                <rect id="Rectangle" fill="#B27500" x="10.9892473" y="43.172043" width="2.35483871" height="3.92473118"></rect>
                <rect id="Rectangle" fill="#B27500" x="5.49462366" y="43.172043" width="2.35483871" height="3.92473118"></rect>
                <rect id="Rectangle" fill="#B27500" x="65.1505376" y="65.1505376" width="2.35483871" height="3.92473118"></rect>
                <rect id="Rectangle" fill="#B27500" x="60.4408602" y="65.1505376" width="2.35483871" height="3.92473118"></rect>
                <rect id="Rectangle" fill="#B27500" x="55.7311828" y="65.1505376" width="2.35483871" height="3.92473118"></rect>
                <rect id="Rectangle" fill="#B27500" x="51.0215054" y="65.1505376" width="2.35483871" height="3.92473118"></rect>
                <rect id="Rectangle" fill="#B27500" x="46.311828" y="65.1505376" width="2.35483871" height="3.92473118"></rect>
                <rect id="Rectangle" fill="#CC6522" transform="translate(55.731183, 61.618280) rotate(-180.000000) translate(-55.731183, -61.618280) " x="40.8172043" y="58.0860215" width="29.827957" height="7.06451613"></rect>
                <rect id="Rectangle" fill="#FFAF51" x="65.1505376" y="58.0860215" width="2.35483871" height="3.92473118"></rect>
                <rect id="Rectangle" fill="#FFAF51" x="59.655914" y="58.0860215" width="2.35483871" height="3.92473118"></rect>
                <rect id="Rectangle" fill="#FFAF51" x="54.9462366" y="58.0860215" width="2.35483871" height="3.92473118"></rect>
                <rect id="Rectangle" fill="#FFAF51" x="49.4516129" y="58.0860215" width="2.35483871" height="3.92473118"></rect>
                <rect id="Rectangle" fill="#FFAF51" x="44.7419355" y="58.0860215" width="2.35483871" height="3.92473118"></rect>
                <circle id="Oval" fill="#CC6522" cx="18.0537634" cy="18.0537634" r="12.5591398"></circle>
                <path d="M21.9784946,15.1382488 L21.9784946,12.671275 L18.1518817,12.671275 L18.1518817,10.2043011 L15.6008065,10.2043011 L15.6008065,12.671275 L13.0497312,12.671275 C12.3452712,12.671275 11.7741935,13.2235259 11.7741935,13.9047619 L11.7741935,18.8387097 C11.7741935,19.5199457 12.3452712,20.0721966 13.0497312,20.0721966 L19.4274194,20.0721966 L19.4274194,22.5391705 L11.7741935,22.5391705 L11.7741935,25.0061444 L15.6008065,25.0061444 L15.6008065,27.4731183 L18.1518817,27.4731183 L18.1518817,25.0061444 L20.702957,25.0061444 C21.407417,25.0061444 21.9784946,24.4538935 21.9784946,23.7726575 L21.9784946,18.8387097 C21.9784946,18.1574736 21.407417,17.6052227 20.702957,17.6052227 L14.3252688,17.6052227 L14.3252688,15.1382488 L21.9784946,15.1382488 Z" id="Path" fill="#FFFFFF"></path>
                <path d="M47.4892473,47.0967742 C45.5384351,47.0967742 43.9569892,45.5153284 43.9569892,43.5645161 C43.9569892,42.9142454 43.4298406,42.3870968 42.7795699,42.3870968 C42.1292991,42.3870968 41.6021505,42.9142454 41.6021505,43.5645161 C41.6021505,45.5153284 40.0207047,47.0967742 38.0698925,47.0967742 C37.4196217,47.0967742 36.8924731,47.6239228 36.8924731,48.2741935 C36.8924731,48.9244643 37.4196217,49.4516129 38.0698925,49.4516129 C40.0207047,49.4516129 41.6021505,51.0330587 41.6021505,52.983871 C41.6021505,53.6341417 42.1292991,54.1612903 42.7795699,54.1612903 C43.4298406,54.1612903 43.9569892,53.6341417 43.9569892,52.983871 C43.9569892,51.0330587 45.5384351,49.4516129 47.4892473,49.4516129 C48.1395181,49.4516129 48.6666667,48.9244643 48.6666667,48.2741935 C48.6666667,47.6239228 48.1395181,47.0967742 47.4892473,47.0967742 Z M42.7795699,49.4881129 C42.4365743,49.0261976 42.0275659,48.6171891 41.5656505,48.2741935 C42.0275659,47.931198 42.4365743,47.5221895 42.7795699,47.0602742 C43.1225655,47.5221895 43.5315739,47.931198 43.9934892,48.2741935 C43.5315739,48.6171891 43.1225655,49.0261976 42.7795699,49.4881129 Z" id="Shape" fill="#04A2E8" fill-rule="nonzero"></path>
                <path d="M71.8225806,4.70967742 C69.8717684,4.70967742 68.2903226,3.12823162 68.2903226,1.17741935 C68.2903226,0.527148601 67.763174,0 67.1129032,0 C66.4626325,0 65.9354839,0.527148601 65.9354839,1.17741935 C65.9354839,3.12823162 64.3540381,4.70967742 62.4032258,4.70967742 C61.7529551,4.70967742 61.2258065,5.23682602 61.2258065,5.88709677 C61.2258065,6.53736753 61.7529551,7.06451613 62.4032258,7.06451613 C64.3540381,7.06451613 65.9354839,8.64596193 65.9354839,10.5967742 C65.9354839,11.2470449 66.4626325,11.7741935 67.1129032,11.7741935 C67.763174,11.7741935 68.2903226,11.2470449 68.2903226,10.5967742 C68.2903226,8.64596193 69.8717684,7.06451613 71.8225806,7.06451613 C72.4728514,7.06451613 73,6.53736753 73,5.88709677 C73,5.23682602 72.4728514,4.70967742 71.8225806,4.70967742 Z M67.1129032,7.10101613 C66.7699076,6.63910081 66.3608992,6.23009236 65.8989839,5.88709677 C66.3608992,5.54410119 66.7699076,5.13509273 67.1129032,4.67317742 C67.4558988,5.13509273 67.8649073,5.54410119 68.3268226,5.88709677 C67.8649073,6.23009236 67.4558988,6.63910081 67.1129032,7.10101613 Z" id="Shape" fill="#04A2E8" fill-rule="nonzero"></path>
                <path d="M47.3584229,30.6129032 L42.3870968,30.6129032 C42.3870968,36.2485831 46.8385738,40.8172043 52.3297491,40.8172043 L57.3010753,40.8172043 C57.3010753,35.1815244 52.8495982,30.6129032 47.3584229,30.6129032 Z" id="Path" fill="#AACC22"></path>
                <path d="M66.4587814,30.6129032 C60.9676061,30.6129032 56.516129,35.1815244 56.516129,40.8172043 L61.4874552,40.8172043 C66.9786305,40.8172043 71.4301075,36.2485831 71.4301075,30.6129032 L66.4587814,30.6129032 Z" id="Path" fill="#AACC22"></path>
                <path d="M47.3584229,17.2688172 L42.3870968,17.2688172 C42.3870968,22.9044971 46.8385738,27.4731183 52.3297491,27.4731183 L57.3010753,27.4731183 C57.3010753,21.8374384 52.8495982,17.2688172 47.3584229,17.2688172 Z" id="Path" fill="#AACC22"></path>
                <path d="M66.4587814,17.2688172 C60.9676061,17.2688172 56.516129,21.8374384 56.516129,27.4731183 L61.4874552,27.4731183 C66.9786305,27.4731183 71.4301075,22.9044971 71.4301075,17.2688172 L66.4587814,17.2688172 Z" id="Path" fill="#AACC22"></path>
            </g>
        </g>
    </g>
</svg>